<?xml version="1.0" encoding="utf-8"?>
<!-- Generator: Adobe Illustrator 24.1.0, SVG Export Plug-In . SVG Version: 6.00 Build 0)  -->
<svg version="1.1" id="Layer_1" xmlns="http://www.w3.org/2000/svg" xmlns:xlink="http://www.w3.org/1999/xlink" x="0px" y="0px"
	 viewBox="0 0 425.2 425.2" style="enable-background:new 0 0 425.2 425.2;" xml:space="preserve">
<style type="text/css">
	.st0{fill:#FFFFFF;}
	.st1{fill:#5F5F5F;}
</style>
<circle class="st0" cx="212.6" cy="212.6" r="212.6"/>
<g>
	<path class="st1" d="M192.1,57.7c-15.5,2.9-40.1,11.6-54.7,25.1c-19.7,18.3-33.6,48-33.6,94.6c0,88.9-20,106.2-48,129
		c-3.2,2.6-1.3,7.7,2.7,7.7h308.2c4.1,0,5.9-5.1,2.8-7.7c-28-22.9-48.1-40.3-48.1-129.2c0-46.9-14-76.7-33.8-94.9
		c-14.5-13.4-38.8-21.8-54.1-24.7c-10.9-2.1-21.5-2-21.5-2S202.2,55.8,192.1,57.7z"/>
	<path class="st1" d="M212.7,369.5c23.2,0,42.2-17.2,44.8-37.3H168C170.4,352.3,189.5,369.5,212.7,369.5z"/>
</g>
</svg>
