<?xml version="1.0" encoding="utf-8"?>
<!-- Generator: Adobe Illustrator 24.1.0, SVG Export Plug-In . SVG Version: 6.00 Build 0)  -->
<svg version="1.1" id="Capa_1" xmlns="http://www.w3.org/2000/svg" xmlns:xlink="http://www.w3.org/1999/xlink" x="0px" y="0px"
	 viewBox="0 0 425.2 425.2" style="enable-background:new 0 0 425.2 425.2;" xml:space="preserve">
<style type="text/css">
	.st0{fill:none;}
	.st1{fill:#111111;}
</style>
<circle class="st0" cx="212.6" cy="212.6" r="212.6"/>
<path class="st1" d="M268.6,235.4l-0.3-0.5L246,212.6l73.7-73.7c9.2-9.2,9.2-24.1,0-33.3c-9.2-9.2-24.1-9.2-33.3,0l-51,51l-0.5,0.3
	l-22.3,22.3l-73.7-73.7c-9.2-9.2-24.1-9.2-33.3,0c-9.2,9.2-9.2,24.1,0,33.3l51,51l0.3,0.5l22.3,22.3l-73.7,73.7
	c-9.2,9.2-9.2,24.1,0,33.3c9.2,9.2,24.1,9.2,33.3,0l51-51l0.5-0.3l22.3-22.3l73.7,73.7c9.2,9.2,24.1,9.2,33.3,0
	c9.2-9.2,9.2-24.1,0-33.3L268.6,235.4z"/>
</svg>
