<?xml version="1.0" encoding="utf-8"?>
<!-- Generator: Adobe Illustrator 24.1.0, SVG Export Plug-In . SVG Version: 6.00 Build 0)  -->
<svg version="1.1" id="Capa_1" xmlns="http://www.w3.org/2000/svg" xmlns:xlink="http://www.w3.org/1999/xlink" x="0px" y="0px"
	 viewBox="0 0 425.2 425.2" style="enable-background:new 0 0 425.2 425.2;" xml:space="preserve">
<style type="text/css">
	.st0{fill:none;}
	.st1{fill:#5F5F5F;}
</style>
<circle class="st0" cx="212.6" cy="212.6" r="212.6"/>
<path class="st1" d="M288.2,255.3c1.2,0.9,2.5,1.6,3.6,2.7c19,18.9,38,37.9,56.9,56.9c11.2,11.3,9.8,28.3-2.7,37.1
	c-9.7,6.9-22.3,5.5-31.3-3.5c-14.5-14.4-29-28.9-43.4-43.4c-5.5-5.5-10.9-11-16.4-16.6c-32.3,20.2-66.6,25.5-102.9,13.9
	c-28.1-8.9-49.8-26.4-65.3-51.3c-30.3-48.6-20.9-113.2,21.9-151.4c44-39.3,108.7-41.3,154.6-4.9
	C308.9,131.2,324.4,199.1,288.2,255.3z M188.7,115.8c-40.1,0-72.8,32.6-72.8,72.6c-0.1,40.1,32.5,72.8,72.6,72.9
	c40.2,0.1,73-32.6,73-72.8C261.4,148.5,228.8,115.9,188.7,115.8z"/>
</svg>
