<?xml version="1.0" encoding="utf-8"?>
<!-- Generator: Adobe Illustrator 24.1.0, SVG Export Plug-In . SVG Version: 6.00 Build 0)  -->
<svg version="1.1" id="Capa_1" xmlns="http://www.w3.org/2000/svg" xmlns:xlink="http://www.w3.org/1999/xlink" x="0px" y="0px"
	 viewBox="0 0 425.2 425.2" style="enable-background:new 0 0 425.2 425.2;" xml:space="preserve">
<style type="text/css">
	.st0{fill:#FFFFFF;}
	.st1{fill:#5F5F5F;}
</style>
<circle class="st0" cx="212.6" cy="212.6" r="212.6"/>
<path class="st1" d="M212.6,67.4c-80.2,0-145.2,65-145.2,145.2c0,24.7,6.2,48,17.1,68.4l-17.1,76.8l76.8-17
	c20.3,10.9,43.7,17,68.4,17c80.2,0,145.2-65,145.2-145.2S292.8,67.4,212.6,67.4z M133.8,232.9c-11.2,0-20.3-9-20.3-20.3
	c0-11.2,9-20.3,20.3-20.3s20.3,9,20.3,20.3C154,223.8,144.9,232.9,133.8,232.9z M212.6,232.9c-11.2,0-20.3-9-20.3-20.3
	c0-11.2,9-20.3,20.3-20.3c11.2,0,20.3,9,20.3,20.3C232.9,223.8,223.8,232.9,212.6,232.9z M291.4,232.9c-11.2,0-20.3-9-20.3-20.3
	c0-11.2,9-20.3,20.3-20.3c11.2,0,20.3,9,20.3,20.3C311.7,223.8,302.7,232.9,291.4,232.9z"/>
</svg>
