<?xml version="1.0" encoding="utf-8"?>
<!-- Generator: Adobe Illustrator 24.1.0, SVG Export Plug-In . SVG Version: 6.00 Build 0)  -->
<svg version="1.1" id="Capa_1" xmlns="http://www.w3.org/2000/svg" xmlns:xlink="http://www.w3.org/1999/xlink" x="0px" y="0px"
	 viewBox="0 0 425.2 425.2" style="enable-background:new 0 0 425.2 425.2;" xml:space="preserve">
<style type="text/css">
	.st0{fill:none;}
	.st1{fill:#111111;}
</style>
<circle class="st0" cx="212.6" cy="212.6" r="212.6"/>
<g>
	<path class="st1" d="M236,260.4c-19.7,0-37.8,0-56.5,0c-1-26,6-48.4,26.1-65.4c10.6-9,21.8-17.4,32.4-26.4
		c9.3-7.9,15.6-17.4,15-30.6c-0.5-11.1-6-18.8-15-23.5c-24.4-12.6-59.8-4.6-68.3,27.2c-1,3.6-1.3,7.4-2,11.7c-20.8,0-41.6,0-62.6,0
		c0.2-26.3,9.5-48.8,27.9-67.4c13.4-13.5,29.9-21.5,48-26.1c14.5-3.7,29.5-5.1,44.5-4.2c22.6,1.3,44,6.5,62.9,19.7
		c18.9,13.2,29,31.3,31.3,54.2c1.9,19.3-0.7,37.8-12.7,53.4c-6.5,8.5-14.6,15.9-22.7,22.9c-6.5,5.7-14.2,10-21.4,15
		c-0.9,0.6-1.8,1.1-2.6,1.7C246.8,231.6,235.2,241.8,236,260.4z"/>
	<path class="st1" d="M207,296.5c20.1,0,36.2,16.5,36.1,36.8c-0.1,20.5-16.2,36.1-36.5,36.5c-18.7,0.4-36.1-16.7-36.1-36.9
		C170.5,313.7,187.7,295.5,207,296.5z"/>
</g>
</svg>
